:version 1.10
:name ASF
:units
  mass 1
  length 1
  angle deg
:documentation
  ASF file generated by Kaydara
:root
  axis xyz
  order  tx ty tz rx ry rz
  position 0 0 0
  orientation 0 0 0
:bonedata
  begin
    id 1
    name RightUpLegDummy
    direction -0.718183 -0.695806 0.00816078
    length 4.904
    axis 0 0 0 xyz
  end
  begin
    id 2
    name RightUpLeg
    direction -0.00334265 -0.999142 0.0412837
    length 17.4976
    axis -0.59612 0.00940841 -0.192072 xyz
    dof rx ry rz
  end
  begin
    id 3
    name RightLeg
    direction 0.000365068 -0.988824 -0.149089
    length 16.5821
    axis 6.58657 0.0604092 -0.318554 xyz
    dof rx ry rz
  end
  begin
    id 4
    name RightFoot
    direction 0.00079069 -0.460991 0.887405
    length 3.77069
    axis 0.000105557 -0.120464 -0.188919 xyz
    dof rx ry rz
  end
  begin
    id 5
    name RightToes
    direction 0.00124768 -0.014065 0.9999
    length 3.85082
    axis 0.00053932 0.542178 -0.142707 xyz
    dof rx ry rz
  end
  begin
    id 6
    name SpineDummy
    direction 8.3039e-015 1 4.58682e-016
    length 4.6813
    axis 0 0 0 xyz
  end
  begin
    id 7
    name Spine
    direction 4.12799e-006 0.999988 0.00494944
    length 10.1015
    axis -0.00149944 0.000129667 -0.000235877 xyz
    dof rx ry rz
  end
  begin
    id 8
    name Spine1
    direction 0 0 0
    length 0
    axis -0.00160567 0.000129431 -0.000308381 xyz
    dof rx ry rz
  end
  begin
    id 9
    name HEadDummy
    direction 5.38513e-006 0.999999 0.00127044
    length 3.43865
    axis -0.00160567 0.000129431 -0.000308381 xyz
  end
  begin
    id 10
    name HEad
    direction -0.0226495 0.980942 0.192974
    length 5.12695
    axis -0.00160642 -0.114462 -0.000307946 xyz
    dof rx ry rz
  end
  begin
    id 11
    name LeftShoulder1Dummy
    direction 0.99889 -0.0402564 -0.0244456
    length 3.5433
    axis -0.00160567 0.000129431 -0.000308381 xyz
  end
  begin
    id 12
    name LeftShoulder1
    direction 0.999464 -0.00142945 0.0326977
    length 4.05031
    axis 0.393425 -0.0796525 -0.0507861 xyz
    dof rx ry rz
  end
  begin
    id 13
    name LeftArm
    direction 0.998564 -0.000899612 -0.053557
    length 10.3537
    axis -22.9476 0.126974 0.960871 xyz
    dof rx ry rz
  end
  begin
    id 14
    name LeftForeArm
    direction 0.998903 0.00865904 0.0460121
    length 8.70632
    axis -9.91856 -0.0656997 -0.178106 xyz
    dof rx ry rz
  end
  begin
    id 15
    name LeftHand
    direction 0.992938 -0.0411687 0.11126
    length 5.32135
    axis -0.00981066 -0.00340928 0.18486 xyz
    dof rx ry rz
  end
  begin
    id 16
    name RightShoulderDummy
    direction -0.998891 -0.0402456 -0.0244411
    length 3.5433
    axis -0.00160567 0.000129431 -0.000308381 xyz
  end
  begin
    id 17
    name RightShoulder
    direction -0.999353 -0.00388479 0.0357579
    length 4.05031
    axis 1.48787 0.256014 0.157284 xyz
    dof rx ry rz
  end
  begin
    id 18
    name RightArm
    direction -0.998583 -0.000660455 -0.0532032
    length 10.3947
    axis -22.4211 -0.109147 -0.943573 xyz
    dof rx ry rz
  end
  begin
    id 19
    name RightForeArm
    direction -0.998898 0.00868588 0.0461311
    length 8.68355
    axis -9.92343 0.0658342 0.178556 xyz
    dof rx ry rz
  end
  begin
    id 20
    name RightHand
    direction -0.992843 -0.0414545 0.112004
    length 5.28593
    axis -0.00982288 0.00332907 -0.185539 xyz
    dof rx ry rz
  end
  begin
    id 21
    name LeftUpLegDummy
    direction 0.718183 -0.695806 0.00816078
    length 4.904
    axis 0 0 0 xyz
  end
  begin
    id 22
    name LeftUpLeg
    direction 0.00445374 -0.999139 0.0412407
    length 17.4976
    axis -0.593655 -0.0138231 0.255969 xyz
    dof rx ry rz
  end
  begin
    id 23
    name LeftLeg
    direction -0.00154847 -0.988829 -0.149046
    length 16.5821
    axis 6.5841 -0.0555156 0.250722 xyz
    dof rx ry rz
  end
  begin
    id 24
    name LeftFoot
    direction -0.00417678 -0.460985 0.887398
    length 3.77069
    axis 5.53694e-005 4.88088e-005 -0.000136194 xyz
    dof rx ry rz
  end
  begin
    id 25
    name LeftToes
    direction 0.00818061 -0.00485256 0.999955
    length 3.85048
    axis 6.41179e-005 4.88477e-005 -0.000136145 xyz
    dof rx ry rz
  end
:hierarchy
  begin
    root RightUpLegDummy SpineDummy LeftUpLegDummy
    RightUpLegDummy RightUpLeg
    RightUpLeg RightLeg
    RightLeg RightFoot
    RightFoot RightToes
    SpineDummy Spine
    Spine Spine1
    Spine1 HEadDummy LeftShoulder1Dummy RightShoulderDummy
    HEadDummy HEad
    LeftShoulder1Dummy LeftShoulder1
    LeftShoulder1 LeftArm
    LeftArm LeftForeArm
    LeftForeArm LeftHand
    RightShoulderDummy RightShoulder
    RightShoulder RightArm
    RightArm RightForeArm
    RightForeArm RightHand
    LeftUpLegDummy LeftUpLeg
    LeftUpLeg LeftLeg
    LeftLeg LeftFoot
    LeftFoot LeftToes
  end

:SAMPLES-PER-SECOND 30
:FULLY-SPECIFIED
:DEGREES
16
root  -0.325857 40.2652 0.25093 -176.41 -84.8601 176.743
RightUpLeg  4.4087 -6.14878 -9.36802
RightLeg  -4.69613 -9.22471 0.00688168
RightFoot  -1.27304 -0.80355 8.99527
RightToes  6.35927e-011 1.30204e-014 -6.03759e-014
Spine  -0.657368 0.0409886 -1.7061
Spine1  0.190174 -0.06875 0.859466
HEad  2.91144 2.38417 -0.186296
LeftShoulder1  0.0164109 3.21732 1.57549
LeftArm  -21.6495 -4.1436 3.25133
LeftForeArm  21.0124 5.23581 -5.87873
LeftHand  -0.0447196 2.49452 1.26308
RightShoulder  -0.0209378 -3.84773 -1.51706
RightArm  -26.0877 20.9686 -0.959677
RightForeArm  23.377 -7.3678 9.10786
RightHand  -0.0539534 -2.54517 -1.67306
LeftUpLeg  6.90839 11.2634 14.1497
LeftLeg  -1.64641 23.0673 -1.36805
LeftFoot  -2.67568 0.638228 -8.16655
LeftToes  1.82556e-010 9.56953e-011 7.56925e-011
17
root  -0.323275 40.2652 0.25111 -176.327 -84.7814 176.573
RightUpLeg  4.45184 -6.16931 -9.39024
RightLeg  -4.6438 -9.09259 -0.0319099
RightFoot  -1.32404 -0.786317 8.8519
RightToes  6.35927e-011 1.30204e-014 -6.03759e-014
Spine  -0.607124 0.0509848 -1.61813
Spine1  0.174265 -0.0271487 0.677048
HEad  3.10694 2.57457 -0.072635
LeftShoulder1  0.0154476 3.28861 1.65721
LeftArm  -21.8941 -4.19189 3.0843
LeftForeArm  21.389 5.17069 -5.75878
LeftHand  -0.0428255 2.17042 1.30725
RightShoulder  -0.0211026 -3.88716 -1.57219
RightArm  -26.1867 20.9522 -0.771413
RightForeArm  23.1127 -7.3571 9.02881
RightHand  -0.0534121 -2.6779 -1.70541
LeftUpLeg  7.01667 11.2761 14.1568
LeftLeg  -1.63116 23.1219 -1.37878
LeftFoot  -2.6722 0.639256 -8.17804
LeftToes  1.82556e-010 9.56953e-011 7.56925e-011
18
root  -0.322026 40.2654 0.250539 -176.159 -84.7261 176.371
RightUpLeg  4.44058 -6.19851 -9.42433
RightLeg  -4.58464 -8.98959 -0.035211
RightFoot  -1.33444 -0.778232 8.76374
RightToes  6.35927e-011 1.30204e-014 -6.03759e-014
Spine  -0.68825 0.0515647 -1.59177
Spine1  0.266815 -0.0136727 0.613294
HEad  3.05846 2.8397 -0.207009
LeftShoulder1  0.0147511 3.29321 1.64709
LeftArm  -21.912 -4.1812 3.06083
LeftForeArm  21.302 5.13058 -5.75955
LeftHand  -0.0400089 2.21759 1.18531
RightShoulder  -0.0212037 -3.83983 -1.58792
RightArm  -26.2243 20.9605 -0.748224
RightForeArm  22.9003 -7.35482 9.00484
RightHand  -0.0574654 -2.67133 -1.87965
LeftUpLeg  7.10893 11.2519 14.1247
LeftLeg  -1.72443 23.2128 -1.40883
LeftFoot  -2.61892 0.638744 -8.16369
LeftToes  1.82556e-010 9.56953e-011 7.56925e-011
19
root  -0.317162 40.2655 0.255284 -175.961 -84.7747 176.113
RightUpLeg  4.48632 -6.24333 -9.47514
RightLeg  -4.53159 -8.99917 -0.0355031
RightFoot  -1.32804 -0.788452 8.93362
RightToes  6.35927e-011 1.30204e-014 -6.03759e-014
Spine  -0.728947 0.0668132 -1.56237
Spine1  0.36084 -0.00270121 0.636188
HEad  2.93784 3.01825 -0.391801
LeftShoulder1  0.0142936 3.15028 1.46832
LeftArm  -21.9276 -4.20631 3.12021
LeftForeArm  21.1081 5.19857 -5.75879
LeftHand  -0.0371278 2.2308 0.982431
RightShoulder  -0.0212503 -3.81547 -1.67943
RightArm  -26.196 20.8654 -0.784827
RightForeArm  22.7221 -7.3539 8.9912
RightHand  -0.0673575 -2.47761 -2.19186
LeftUpLeg  7.14753 11.2091 14.0853
LeftLeg  -1.73034 23.2188 -1.37895
LeftFoot  -2.61054 0.638403 -8.15106
LeftToes  1.82556e-010 9.56953e-011 7.56925e-011
20
root  -0.307851 40.2657 0.254592 -175.935 -84.8753 176.07
RightUpLeg  4.5075 -6.27775 -9.49795
RightLeg  -4.51124 -9.05534 0.00925725
RightFoot  -1.3281 -0.790161 8.99039
RightToes  6.35927e-011 1.30204e-014 -6.03759e-014
Spine  -0.712797 0.0201829 -1.53235
Spine1  0.340073 -0.0408741 0.585234
HEad  2.8858 3.12869 -0.305074
LeftShoulder1  0.0140478 3.11425 1.4478
LeftArm  -21.9332 -4.2473 3.12725
LeftForeArm  20.8532 5.33033 -5.75435
LeftHand  -0.0382582 2.45367 0.78521
RightShoulder  -0.0212774 -3.83504 -1.60789
RightArm  -26.2511 20.9702 -0.830483
RightForeArm  22.482 -7.35519 8.99249
RightHand  -0.0667874 -2.34522 -2.10439
LeftUpLeg  7.09713 11.2182 14.1019
LeftLeg  -1.68617 23.1025 -1.35995
LeftFoot  -2.59555 0.640882 -8.17944
LeftToes  1.82556e-010 9.56953e-011 7.56925e-011
21
root  -0.298431 40.266 0.253189 -175.678 -84.9706 175.746
RightUpLeg  4.60596 -6.28614 -9.51106
RightLeg  -4.5439 -9.09139 0.00238934
RightFoot  -1.3693 -0.775702 8.79819
RightToes  6.35927e-011 1.30204e-014 -6.03759e-014
Spine  -0.680773 -0.0355996 -1.63414
Spine1  0.410218 -0.117376 0.681198
HEad  2.72307 3.29512 -0.336981
LeftShoulder1  0.0139858 3.1903 1.35202
LeftArm  -21.7474 -4.25132 3.15229
LeftForeArm  20.6015 5.33007 -5.85463
LeftHand  -0.0387518 2.54261 0.903884
RightShoulder  -0.0212397 -3.78661 -1.70242
RightArm  -26.2719 21.0468 -0.710314
RightForeArm  22.3221 -7.35778 8.99841
RightHand  -0.0606447 -2.53742 -1.94966
LeftUpLeg  7.09707 11.2055 14.0917
LeftLeg  -1.63387 22.9981 -1.32554
LeftFoot  -2.58511 0.642512 -8.18607
LeftToes  1.82556e-010 9.56953e-011 7.56925e-011
22
root  -0.287521 40.2665 0.25263 -175.341 -85.075 175.354
RightUpLeg  4.64506 -6.35452 -9.57668
RightLeg  -4.47436 -9.14052 0.0320508
RightFoot  -1.35562 -0.784743 8.96295
RightToes  6.35927e-011 1.30204e-014 -6.03759e-014
Spine  -0.638751 -0.0827025 -1.57985
Spine1  0.453862 -0.140604 0.559996
HEad  2.6583 3.38722 -0.197489
LeftShoulder1  0.0140802 3.21998 1.37745
LeftArm  -21.649 -4.25582 3.1281
LeftForeArm  20.5054 5.27669 -5.91188
LeftHand  -0.0379785 2.59062 1.00698
RightShoulder  -0.0212115 -3.80686 -1.6169
RightArm  -26.31 21.1546 -0.66652
RightForeArm  22.3637 -7.35874 9.00567
RightHand  -0.0540441 -2.65218 -1.72019
LeftUpLeg  7.14033 11.1759 14.0546
LeftLeg  -1.72446 22.9316 -1.34715
LeftFoot  -2.58248 0.638631 -8.10069
LeftToes  1.82556e-010 9.56953e-011 7.56925e-011
